<!-- <svg width="25" height="25" viewBox="0 0 25 25" fill="none" xmlns="http://www.w3.org/2000/svg"> -->
<svg xmlns="http://www.w3.org/2000/svg"{{ with .width }} width="{{ . }}"{{ end }}{{ with .height }} height="{{ . }}"{{ end }}{{ with .class }} class="{{ . }}"{{ end }} fill="currentColor" focusable="false" viewBox="0 0 25 25">
  <path d="M4.50146 24.6367H20.4932C21.873 24.6367 22.9058 24.2939 23.5913 23.6084C24.2856 22.9316 24.6328 21.9121 24.6328 20.5498V4.45264C24.6328 3.09033 24.2856 2.0708 23.5913 1.39404C22.9058 0.708496 21.873 0.365723 20.4932 0.365723H4.50146C3.12158 0.365723 2.08447 0.708496 1.39014 1.39404C0.70459 2.0708 0.361816 3.09033 0.361816 4.45264V20.5498C0.361816 21.9121 0.70459 22.9316 1.39014 23.6084C2.08447 24.2939 3.12158 24.6367 4.50146 24.6367ZM4.52783 22.5142C3.86865 22.5142 3.36328 22.3428 3.01172 22C2.66016 21.6484 2.48438 21.1299 2.48438 20.4443V4.55811C2.48438 3.87256 2.66016 3.3584 3.01172 3.01562C3.36328 2.66406 3.86865 2.48828 4.52783 2.48828H20.4668C21.1172 2.48828 21.6182 2.66406 21.9697 3.01562C22.3301 3.3584 22.5103 3.87256 22.5103 4.55811V20.4443C22.5103 21.1299 22.3301 21.6484 21.9697 22C21.6182 22.3428 21.1172 22.5142 20.4668 22.5142H4.52783ZM9.47168 18.3613H15.7075C15.9624 18.3613 16.1733 18.2866 16.3403 18.1372C16.5073 17.979 16.5908 17.7681 16.5908 17.5044C16.5908 17.2319 16.5073 17.021 16.3403 16.8716C16.1733 16.7134 15.9624 16.6343 15.7075 16.6343H10.5396V13.0879H15.3647C15.6196 13.0879 15.8306 13.0176 15.9976 12.877C16.1646 12.7363 16.248 12.5386 16.248 12.2837C16.248 12.0112 16.1646 11.8047 15.9976 11.6641C15.8306 11.5146 15.6196 11.4399 15.3647 11.4399H10.5396V8.07812H15.7075C15.9624 8.07812 16.1733 7.99902 16.3403 7.84082C16.5073 7.68262 16.5908 7.47168 16.5908 7.20801C16.5908 6.94434 16.5073 6.73779 16.3403 6.58838C16.1733 6.43018 15.9624 6.35107 15.7075 6.35107H9.47168C9.1377 6.35107 8.88281 6.46094 8.70703 6.68066C8.53125 6.90039 8.44336 7.18604 8.44336 7.5376V17.1748C8.44336 17.5352 8.53125 17.8252 8.70703 18.0449C8.88281 18.2559 9.1377 18.3613 9.47168 18.3613Z"/>
</svg>
