<!-- <svg width="25" height="25" viewBox="0 0 25 25" fill="none" xmlns="http://www.w3.org/2000/svg"> -->
<svg xmlns="http://www.w3.org/2000/svg"{{ with .width }} width="{{ . }}"{{ end }}{{ with .height }} height="{{ . }}"{{ end }}{{ with .class }} class="{{ . }}"{{ end }} fill="currentColor" focusable="false" viewBox="0 0 24 29">
  <path d="M3.5918 9.23438C3.5918 11.915 5.18262 13.6992 8.36426 14.5869L14.9956 16.459C17.1929 17.083 18.2915 18.1904 18.2915 19.7812V20.7041H20.4141V19.7812C20.4141 17.1006 18.8232 15.3208 15.6416 14.4419L9.01025 12.5698C6.81299 11.9546 5.71436 10.8428 5.71436 9.23438V8.32471H3.5918V9.23438ZM8.41699 0.717773C8.1709 0.47168 7.88086 0.317871 7.54688 0.256348C7.21289 0.186035 6.84375 0.150879 6.43945 0.150879H2.87988C2.48438 0.150879 2.11963 0.186035 1.78564 0.256348C1.45166 0.317871 1.16162 0.47168 0.915527 0.717773C0.669434 0.963867 0.515625 1.25391 0.454102 1.58789C0.392578 1.91309 0.361816 2.27344 0.361816 2.66895V6.22852C0.361816 6.63281 0.392578 7.00195 0.454102 7.33594C0.515625 7.66992 0.669434 7.95557 0.915527 8.19287C1.16162 8.43896 1.45166 8.59717 1.78564 8.66748C2.11963 8.729 2.48877 8.75977 2.89307 8.75977H6.43945C6.84375 8.75977 7.21289 8.729 7.54688 8.66748C7.88086 8.59717 8.1709 8.43896 8.41699 8.19287C8.6543 7.95557 8.80371 7.66992 8.86523 7.33594C8.93555 7.00195 8.9707 6.63281 8.9707 6.22852V2.68213C8.9707 2.27783 8.93555 1.91309 8.86523 1.58789C8.80371 1.25391 8.6543 0.963867 8.41699 0.717773ZM23.0903 20.8096C22.8442 20.5635 22.5542 20.4097 22.2202 20.3481C21.8862 20.2778 21.5171 20.2427 21.1128 20.2427H17.5532C17.1577 20.2427 16.793 20.2778 16.459 20.3481C16.125 20.4097 15.835 20.5635 15.5889 20.8096C15.3428 21.0557 15.189 21.3457 15.1274 21.6797C15.0659 22.0049 15.0352 22.3652 15.0352 22.7607V26.3203C15.0352 26.7158 15.0659 27.0806 15.1274 27.4146C15.189 27.7573 15.3428 28.0474 15.5889 28.2847C15.835 28.522 16.125 28.6714 16.459 28.7329C16.793 28.8032 17.1577 28.8384 17.5532 28.8384H21.1128C21.5171 28.8384 21.8862 28.8032 22.2202 28.7329C22.5542 28.6714 22.8442 28.522 23.0903 28.2847C23.3276 28.0474 23.4771 27.7573 23.5386 27.4146C23.6001 27.0806 23.6309 26.7158 23.6309 26.3203V22.7607C23.6309 22.3652 23.6001 22.0005 23.5386 21.6665C23.4771 21.3325 23.3276 21.0469 23.0903 20.8096Z" />
</svg>
    
    
