<!-- <svg width="25" height="25" viewBox="0 0 25 25" fill="none" xmlns="http://www.w3.org/2000/svg"> -->
<svg xmlns="http://www.w3.org/2000/svg"{{ with .width }} width="{{ . }}"{{ end }}{{ with .height }} height="{{ . }}"{{ end }}{{ with .class }} class="{{ . }}"{{ end }} fill="currentColor" focusable="false" viewBox="0 0 25 25">
  <path d="M2.87988 11.4136H8.8916C9.72656 11.4136 10.355 11.2026 10.7769 10.7808C11.1987 10.3501 11.4097 9.69971 11.4097 8.82959V2.93652C11.4097 2.06641 11.1987 1.42041 10.7769 0.998535C10.355 0.57666 9.72656 0.365723 8.8916 0.365723H2.87988C2.04492 0.365723 1.4165 0.57666 0.994629 0.998535C0.572754 1.42041 0.361816 2.06641 0.361816 2.93652V8.82959C0.361816 9.69971 0.572754 10.3501 0.994629 10.7808C1.4165 11.2026 2.04492 11.4136 2.87988 11.4136ZM2.90625 9.55469C2.67773 9.55469 2.50635 9.49316 2.39209 9.37012C2.27783 9.24707 2.2207 9.06689 2.2207 8.82959V2.93652C2.2207 2.69922 2.27783 2.52344 2.39209 2.40918C2.50635 2.28613 2.67773 2.22461 2.90625 2.22461H8.85205C9.08057 2.22461 9.25195 2.28613 9.36621 2.40918C9.48926 2.52344 9.55078 2.69922 9.55078 2.93652V8.82959C9.55078 9.06689 9.48926 9.24707 9.36621 9.37012C9.25195 9.49316 9.08057 9.55469 8.85205 9.55469H2.90625ZM16.1162 11.4136H22.1147C22.9497 11.4136 23.5781 11.2026 24 10.7808C24.4219 10.3501 24.6328 9.69971 24.6328 8.82959V2.93652C24.6328 2.06641 24.4219 1.42041 24 0.998535C23.5781 0.57666 22.9497 0.365723 22.1147 0.365723H16.1162C15.2725 0.365723 14.6396 0.57666 14.2178 0.998535C13.7959 1.42041 13.585 2.06641 13.585 2.93652V8.82959C13.585 9.69971 13.7959 10.3501 14.2178 10.7808C14.6396 11.2026 15.2725 11.4136 16.1162 11.4136ZM16.1426 9.55469C15.9053 9.55469 15.7295 9.49316 15.6152 9.37012C15.501 9.24707 15.4438 9.06689 15.4438 8.82959V2.93652C15.4438 2.69922 15.501 2.52344 15.6152 2.40918C15.7295 2.28613 15.9053 2.22461 16.1426 2.22461H22.0884C22.3257 2.22461 22.4971 2.28613 22.6025 2.40918C22.7168 2.52344 22.7739 2.69922 22.7739 2.93652V8.82959C22.7739 9.06689 22.7168 9.24707 22.6025 9.37012C22.4971 9.49316 22.3257 9.55469 22.0884 9.55469H16.1426ZM2.87988 24.6367H8.8916C9.72656 24.6367 10.355 24.4258 10.7769 24.0039C11.1987 23.582 11.4097 22.936 11.4097 22.0659V16.1597C11.4097 15.2983 11.1987 14.6567 10.7769 14.2349C10.355 13.8042 9.72656 13.5889 8.8916 13.5889H2.87988C2.04492 13.5889 1.4165 13.8042 0.994629 14.2349C0.572754 14.6567 0.361816 15.2983 0.361816 16.1597V22.0659C0.361816 22.936 0.572754 23.582 0.994629 24.0039C1.4165 24.4258 2.04492 24.6367 2.87988 24.6367ZM2.90625 22.7778C2.67773 22.7778 2.50635 22.7163 2.39209 22.5933C2.27783 22.479 2.2207 22.3032 2.2207 22.0659V16.1729C2.2207 15.9268 2.27783 15.7466 2.39209 15.6323C2.50635 15.5093 2.67773 15.4478 2.90625 15.4478H8.85205C9.08057 15.4478 9.25195 15.5093 9.36621 15.6323C9.48926 15.7466 9.55078 15.9268 9.55078 16.1729V22.0659C9.55078 22.3032 9.48926 22.479 9.36621 22.5933C9.25195 22.7163 9.08057 22.7778 8.85205 22.7778H2.90625ZM16.1162 24.6367H22.1147C22.9497 24.6367 23.5781 24.4258 24 24.0039C24.4219 23.582 24.6328 22.936 24.6328 22.0659V16.1597C24.6328 15.2983 24.4219 14.6567 24 14.2349C23.5781 13.8042 22.9497 13.5889 22.1147 13.5889H16.1162C15.2725 13.5889 14.6396 13.8042 14.2178 14.2349C13.7959 14.6567 13.585 15.2983 13.585 16.1597V22.0659C13.585 22.936 13.7959 23.582 14.2178 24.0039C14.6396 24.4258 15.2725 24.6367 16.1162 24.6367ZM16.1426 22.7778C15.9053 22.7778 15.7295 22.7163 15.6152 22.5933C15.501 22.479 15.4438 22.3032 15.4438 22.0659V16.1729C15.4438 15.9268 15.501 15.7466 15.6152 15.6323C15.7295 15.5093 15.9053 15.4478 16.1426 15.4478H22.0884C22.3257 15.4478 22.4971 15.5093 22.6025 15.6323C22.7168 15.7466 22.7739 15.9268 22.7739 16.1729V22.0659C22.7739 22.3032 22.7168 22.479 22.6025 22.5933C22.4971 22.7163 22.3257 22.7778 22.0884 22.7778H16.1426Z"/>
</svg>
    
