<svg width="40" height="32" class="d-block my-1" viewBox="0 0 376 665" fill="none" xmlns="http://www.w3.org/2000/svg">
    <title>Flomi</title>
    <path d="M116 0C110.477 0 106 4.47715 106 10V18.0008C76.6858 18.0161 61.4487 18.3193 49.6685 24.3216C38.7551 29.8823 29.8823 38.7551 24.3216 49.6685C18.3193 61.4487 18.0161 76.6858 18.0008 106H10C4.47715 106 0 110.477 0 116V166C0 171.523 4.47715 176 10 176H18V248H10C4.47715 248 0 252.477 0 258V308C0 313.523 4.47715 318 10 318H18V390H10C4.47715 390 0 394.477 0 400V450C0 455.523 4.47715 460 10 460H18V595H10C4.47715 595 0 599.477 0 605V655C0 660.523 4.47715 665 10 665H166C171.523 665 176 660.523 176 655V605C176 599.477 171.523 595 166 595H158V460H166C171.523 460 176 455.523 176 450V442H184C189.523 442 194 437.523 194 432V421H306V429C306 434.523 310.477 439 316 439H366C371.523 439 376 434.523 376 429V273C376 267.477 371.523 263 366 263H316C310.477 263 306 267.477 306 273V281H194V276C194 270.477 189.523 266 184 266H176V258C176 252.477 171.523 248 166 248H158V176H166C171.523 176 176 171.523 176 166V158H306V166C306 171.523 310.477 176 316 176H366C371.523 176 376 171.523 376 166V10C376 4.47715 371.523 0 366 0H316C310.477 0 306 4.47715 306 10V18H176V10C176 4.47715 171.523 0 166 0H116Z" fill="currentColor"></path>
</svg>